# xmcd
#
# Track frame offsets: 
#        151
#        21588
#        41830
#        62342
#        78208
#        95690
#        120918
#        138978
#        153094
#        170662
#
# Disc length: 2494 seconds
#
# Revision: 5
# Processed by: cddbd v1.5.2PL0 Copyright (c) Steve Scherf et al.
# Submitted via: ExactAudioCopy v0.99pb3
#
DISCID=7809bc0a
DTITLE=Wovenhand - Consider The Birds
DYEAR=2004
DGENRE=Alternative
TTITLE0=Sparrow Falls
TTITLE1=Bleary Eyed Duty
TTITLE2=To Make A Ring
TTITLE3=Off The Cuff
TTITLE4=Chest Of Drawers
TTITLE5=Oil On Panel
TTITLE6=The Speaking Hands
TTITLE7=Down In Yon Forest
TTITLE8=Tin Finger
TTITLE9=Into The Piano
EXTD=YEAR: 2004
EXTT0=
EXTT1=
EXTT2=
EXTT3=
EXTT4=
EXTT5=
EXTT6=
EXTT7=
EXTT8=
EXTT9=
PLAYORDER=
